<svg width="22" height="22" viewBox="0 0 22 22" fill="none" xmlns="http://www.w3.org/2000/svg">
<path d="M1.83337 18.3333C2.04161 18.6235 2.31735 18.8585 2.63676 19.0182C2.95618 19.1779 3.30967 19.2575 3.66671 19.25C4.02375 19.2575 4.37724 19.1779 4.69665 19.0182C5.01607 18.8585 5.2918 18.6235 5.50004 18.3333C5.70828 18.0432 5.98402 17.8082 6.30343 17.6484C6.62284 17.4887 6.97634 17.4092 7.33337 17.4167C7.69041 17.4092 8.0439 17.4887 8.36332 17.6484C8.68273 17.8082 8.95847 18.0432 9.16671 18.3333C9.37495 18.6235 9.65068 18.8585 9.9701 19.0182C10.2895 19.1779 10.643 19.2575 11 19.25C11.3571 19.2575 11.7106 19.1779 12.03 19.0182C12.3494 18.8585 12.6251 18.6235 12.8334 18.3333C13.0416 18.0432 13.3173 17.8082 13.6368 17.6484C13.9562 17.4887 14.3097 17.4092 14.6667 17.4167C15.0237 17.4092 15.3772 17.4887 15.6967 17.6484C16.0161 17.8082 16.2918 18.0432 16.5 18.3333C16.7083 18.6235 16.984 18.8585 17.3034 19.0182C17.6228 19.1779 17.9763 19.2575 18.3334 19.25C18.6904 19.2575 19.0439 19.1779 19.3633 19.0182C19.6827 18.8585 19.9585 18.6235 20.1667 18.3333M3.66671 16.5L2.75004 11.9167H19.25L17.4167 15.5833M4.58337 11.9167V6.41667H11.9167L15.5834 11.9167M6.41671 6.41667V2.75H5.50004" stroke="black" stroke-width="2" stroke-linecap="round" stroke-linejoin="round"/>
</svg>
