<svg width="24" height="24" viewBox="0 0 24 24" fill="none" xmlns="http://www.w3.org/2000/svg">
<path d="M19.677 20.1926L13.415 13.9306C12.915 14.3566 12.34 14.6863 11.69 14.9196C11.04 15.153 10.3867 15.2696 9.73 15.2696C8.12867 15.2696 6.77333 14.7153 5.664 13.6066C4.55467 12.498 4 11.143 4 9.54162C4 7.94029 4.554 6.58462 5.662 5.47462C6.77 4.36462 8.12467 3.80895 9.726 3.80762C11.3273 3.80629 12.6833 4.36095 13.794 5.47162C14.9047 6.58229 15.46 7.93795 15.46 9.53862C15.46 10.2333 15.337 10.9056 15.091 11.5556C14.845 12.2056 14.5217 12.7616 14.121 13.2236L20.383 19.4846L19.677 20.1926ZM9.731 14.2686C11.0577 14.2686 12.1777 13.812 13.091 12.8986C14.0043 11.9853 14.461 10.865 14.461 9.53762C14.461 8.21029 14.0043 7.09029 13.091 6.17762C12.1777 5.26495 11.0577 4.80829 9.731 4.80762C8.40433 4.80695 7.284 5.26362 6.37 6.17762C5.456 7.09162 4.99933 8.21162 5 9.53762C5.00067 10.8636 5.45733 11.9836 6.37 12.8976C7.28267 13.8116 8.40267 14.2683 9.73 14.2676" fill="black"/>
</svg>
