<svg width="22" height="22" viewBox="0 0 22 22" fill="none" xmlns="http://www.w3.org/2000/svg">
<g clip-path="url(#clip0_120_42)">
<path d="M15.749 12.8333C16.0142 12.8333 16.2686 12.723 16.4561 12.5265C16.6437 12.33 16.749 12.0636 16.749 11.7857C16.749 11.5079 16.6437 11.2414 16.4561 11.0449C16.2686 10.8485 16.0142 10.7381 15.749 10.7381C15.4838 10.7381 15.2295 10.8485 15.0419 11.0449C14.8544 11.2414 14.749 11.5079 14.749 11.7857C14.749 12.0636 14.8544 12.33 15.0419 12.5265C15.2295 12.723 15.4838 12.8333 15.749 12.8333ZM15.749 17.0238C16.0142 17.0238 16.2686 16.9134 16.4561 16.717C16.6437 16.5205 16.749 16.254 16.749 15.9762C16.749 15.6983 16.6437 15.4319 16.4561 15.2354C16.2686 15.0389 16.0142 14.9286 15.749 14.9286C15.4838 14.9286 15.2295 15.0389 15.0419 15.2354C14.8544 15.4319 14.749 15.6983 14.749 15.9762C14.749 16.254 14.8544 16.5205 15.0419 16.717C15.2295 16.9134 15.4838 17.0238 15.749 17.0238ZM11.749 11.7857C11.749 12.0636 11.6437 12.33 11.4561 12.5265C11.2686 12.723 11.0142 12.8333 10.749 12.8333C10.4838 12.8333 10.2295 12.723 10.0419 12.5265C9.85438 12.33 9.74902 12.0636 9.74902 11.7857C9.74902 11.5079 9.85438 11.2414 10.0419 11.0449C10.2295 10.8485 10.4838 10.7381 10.749 10.7381C11.0142 10.7381 11.2686 10.8485 11.4561 11.0449C11.6437 11.2414 11.749 11.5079 11.749 11.7857ZM11.749 15.9762C11.749 16.254 11.6437 16.5205 11.4561 16.717C11.2686 16.9134 11.0142 17.0238 10.749 17.0238C10.4838 17.0238 10.2295 16.9134 10.0419 16.717C9.85438 16.5205 9.74902 16.254 9.74902 15.9762C9.74902 15.6983 9.85438 15.4319 10.0419 15.2354C10.2295 15.0389 10.4838 14.9286 10.749 14.9286C11.0142 14.9286 11.2686 15.0389 11.4561 15.2354C11.6437 15.4319 11.749 15.6983 11.749 15.9762ZM5.74902 12.8333C6.01424 12.8333 6.26859 12.723 6.45613 12.5265C6.64367 12.33 6.74902 12.0636 6.74902 11.7857C6.74902 11.5079 6.64367 11.2414 6.45613 11.0449C6.26859 10.8485 6.01424 10.7381 5.74902 10.7381C5.48381 10.7381 5.22945 10.8485 5.04192 11.0449C4.85438 11.2414 4.74902 11.5079 4.74902 11.7857C4.74902 12.0636 4.85438 12.33 5.04192 12.5265C5.22945 12.723 5.48381 12.8333 5.74902 12.8333ZM5.74902 17.0238C6.01424 17.0238 6.26859 16.9134 6.45613 16.717C6.64367 16.5205 6.74902 16.254 6.74902 15.9762C6.74902 15.6983 6.64367 15.4319 6.45613 15.2354C6.26859 15.0389 6.01424 14.9286 5.74902 14.9286C5.48381 14.9286 5.22945 15.0389 5.04192 15.2354C4.85438 15.4319 4.74902 15.6983 4.74902 15.9762C4.74902 16.254 4.85438 16.5205 5.04192 16.717C5.22945 16.9134 5.48381 17.0238 5.74902 17.0238Z" fill="black"/>
<path fill-rule="evenodd" clip-rule="evenodd" d="M5.749 0C5.94791 0 6.13868 0.0827804 6.27933 0.23013C6.41998 0.37748 6.499 0.57733 6.499 0.785714V1.58505C7.161 1.57143 7.89 1.57143 8.692 1.57143H12.805C13.608 1.57143 14.337 1.57143 14.999 1.58505V0.785714C14.999 0.57733 15.078 0.37748 15.2187 0.23013C15.3593 0.0827804 15.5501 0 15.749 0C15.9479 0 16.1387 0.0827804 16.2793 0.23013C16.42 0.37748 16.499 0.57733 16.499 0.785714V1.6521C16.759 1.67305 17.0053 1.69959 17.238 1.73171C18.41 1.89724 19.359 2.24505 20.108 3.02867C20.856 3.81333 21.188 4.80752 21.346 6.03533C21.499 7.22962 21.499 8.75391 21.499 10.6794V12.892C21.499 14.8175 21.499 16.3429 21.346 17.5361C21.188 18.7639 20.856 19.7581 20.108 20.5428C19.359 21.3264 18.41 21.6742 17.238 21.8397C16.098 22 14.643 22 12.805 22H8.694C6.856 22 5.4 22 4.261 21.8397C3.089 21.6742 2.14 21.3264 1.391 20.5428C0.643 19.7581 0.311 18.7639 0.153 17.5361C0 16.3418 0 14.8175 0 12.892V10.6794C0 8.75391 0 7.22857 0.153 6.03533C0.311 4.80752 0.643 3.81333 1.391 3.02867C2.14 2.24505 3.089 1.89724 4.261 1.73171C4.49433 1.69959 4.74067 1.67305 5 1.6521V0.785714C5 0.577511 5.07888 0.37782 5.21932 0.2305C5.35975 0.0831805 5.55026 0.000277604 5.749 0ZM4.459 3.28952C3.454 3.43095 2.874 3.69705 2.451 4.14019C2.028 4.58333 1.774 5.19095 1.639 6.24381C1.61633 6.42191 1.597 6.61013 1.581 6.80848H19.917C19.901 6.61013 19.8817 6.42156 19.859 6.24276C19.724 5.18991 19.47 4.58229 19.047 4.13914C18.624 3.696 18.044 3.4299 17.038 3.28848C16.011 3.1439 14.656 3.14181 12.749 3.14181H8.749C6.842 3.14181 5.488 3.14495 4.459 3.28952ZM1.499 10.7381C1.499 9.84343 1.499 9.06505 1.512 8.38095H19.986C19.999 9.06505 19.999 9.84343 19.999 10.7381V12.8333C19.999 14.8311 19.997 16.2507 19.859 17.3276C19.724 18.3805 19.47 18.9881 19.047 19.4312C18.624 19.8744 18.044 20.1405 17.038 20.2819C16.011 20.4265 14.656 20.4286 12.749 20.4286H8.749C6.842 20.4286 5.488 20.4265 4.459 20.2819C3.454 20.1405 2.874 19.8744 2.451 19.4312C2.028 18.9881 1.774 18.3805 1.639 17.3266C1.501 16.2507 1.499 14.8311 1.499 12.8333V10.7381Z" fill="black"/>
</g>
<defs>
<clipPath id="clip0_120_42">
<rect width="22" height="22" fill="white"/>
</clipPath>
</defs>
</svg>
