<svg width="99" height="19" viewBox="0 0 99 19" fill="none" xmlns="http://www.w3.org/2000/svg">
<path d="M0.571023 18V15.0341L1.06534 14.9915C1.7017 14.9403 2.21591 14.6989 2.60795 14.267C3 13.8295 3.29261 13.1335 3.4858 12.179C3.68466 11.2188 3.8125 9.92898 3.86932 8.30966L4.15909 0.545454H16.0057V18H12.4176V3.50284H7.58523L7.3125 9.57955C7.22159 11.5341 6.98864 13.1307 6.61364 14.3693C6.24432 15.608 5.65341 16.5227 4.84091 17.1136C4.03409 17.7045 2.92898 18 1.52557 18H0.571023ZM24.8949 18.2557C23.571 18.2557 22.4261 17.9744 21.4602 17.4119C20.5 16.8437 19.7585 16.054 19.2358 15.0426C18.7131 14.0256 18.4517 12.8466 18.4517 11.5057C18.4517 10.1534 18.7131 8.97159 19.2358 7.96023C19.7585 6.94318 20.5 6.15341 21.4602 5.59091C22.4261 5.02273 23.571 4.73864 24.8949 4.73864C26.2188 4.73864 27.3608 5.02273 28.321 5.59091C29.2869 6.15341 30.0312 6.94318 30.554 7.96023C31.0767 8.97159 31.3381 10.1534 31.3381 11.5057C31.3381 12.8466 31.0767 14.0256 30.554 15.0426C30.0312 16.054 29.2869 16.8437 28.321 17.4119C27.3608 17.9744 26.2188 18.2557 24.8949 18.2557ZM24.9119 15.4432C25.5142 15.4432 26.017 15.2727 26.4205 14.9318C26.8239 14.5852 27.1278 14.1136 27.3324 13.517C27.5426 12.9205 27.6477 12.2415 27.6477 11.4801C27.6477 10.7188 27.5426 10.0398 27.3324 9.44318C27.1278 8.84659 26.8239 8.375 26.4205 8.02841C26.017 7.68182 25.5142 7.50852 24.9119 7.50852C24.304 7.50852 23.7926 7.68182 23.3778 8.02841C22.9688 8.375 22.6591 8.84659 22.4489 9.44318C22.2443 10.0398 22.142 10.7188 22.142 11.4801C22.142 12.2415 22.2443 12.9205 22.4489 13.517C22.6591 14.1136 22.9688 14.5852 23.3778 14.9318C23.7926 15.2727 24.304 15.4432 24.9119 15.4432ZM42.6648 4.90909V7.7642H37.2273V18H33.6989V4.90909H42.6648ZM50.3246 18.2557C49.0007 18.2557 47.8558 17.9744 46.8899 17.4119C45.9297 16.8437 45.1882 16.054 44.6655 15.0426C44.1428 14.0256 43.8814 12.8466 43.8814 11.5057C43.8814 10.1534 44.1428 8.97159 44.6655 7.96023C45.1882 6.94318 45.9297 6.15341 46.8899 5.59091C47.8558 5.02273 49.0007 4.73864 50.3246 4.73864C51.6484 4.73864 52.7905 5.02273 53.7507 5.59091C54.7166 6.15341 55.4609 6.94318 55.9837 7.96023C56.5064 8.97159 56.7678 10.1534 56.7678 11.5057C56.7678 12.8466 56.5064 14.0256 55.9837 15.0426C55.4609 16.054 54.7166 16.8437 53.7507 17.4119C52.7905 17.9744 51.6484 18.2557 50.3246 18.2557ZM50.3416 15.4432C50.9439 15.4432 51.4467 15.2727 51.8501 14.9318C52.2536 14.5852 52.5575 14.1136 52.7621 13.517C52.9723 12.9205 53.0774 12.2415 53.0774 11.4801C53.0774 10.7188 52.9723 10.0398 52.7621 9.44318C52.5575 8.84659 52.2536 8.375 51.8501 8.02841C51.4467 7.68182 50.9439 7.50852 50.3416 7.50852C49.7337 7.50852 49.2223 7.68182 48.8075 8.02841C48.3984 8.375 48.0888 8.84659 47.8786 9.44318C47.674 10.0398 47.5717 10.7188 47.5717 11.4801C47.5717 12.2415 47.674 12.9205 47.8786 13.517C48.0888 14.1136 48.3984 14.5852 48.8075 14.9318C49.2223 15.2727 49.7337 15.4432 50.3416 15.4432ZM57.8608 7.7642V4.90909H69.7244V7.7642H65.5057V18H62.0455V7.7642H57.8608ZM75.3942 13.2102L80.1072 4.90909H83.6868V18H80.2266V9.6733L75.5305 18H71.9254V4.90909H75.3942V13.2102ZM86.5973 18V4.90909H98.0433V18H94.5746V7.7642H90.0234V18H86.5973Z" fill="black"/>
</svg>
